<svg width="507.451" height="507.45" xmlns="http://www.w3.org/2000/svg">

 <g>
  <title>background</title>
  <rect fill="none" id="canvas_background" height="402" width="582" y="-1" x="-1"/>
 </g>
 <g>
  <title>Layer 1</title>
  <g id="svg_1">
   <g id="settings">
    <path fill="#b3b3b3" id="svg_2" d="m440.813,280.5c0,-7.65 2.55,-15.3 2.55,-25.5s0,-17.85 -2.55,-25.5l53.55,-43.35c5.1,-5.1 5.1,-10.2 2.55,-15.3l-51,-89.25c-2.55,-2.55 -7.649,-5.1 -15.3,-2.55l-63.75,25.5c-12.75,-10.2 -28.05,-17.85 -43.35,-25.5l-10.2,-66.3c2.55,-7.65 -5.101,-12.75 -10.2,-12.75l-102,0c-5.101,0 -12.75,5.1 -12.75,10.2l-10.2,68.85c-15.3,5.1 -28.05,15.3 -43.35,25.5l-61.2,-25.5c-7.65,-2.55 -12.75,0 -17.851,5.1l-51,89.25c-2.55,2.55 0,10.2 5.1,15.3l53.55,40.8c0,7.65 -2.55,15.3 -2.55,25.5s0,17.85 2.55,25.5l-53.55,43.35c-5.1,5.101 -5.1,10.2 -2.55,15.301l51,89.25c2.55,2.55 7.649,5.1 15.3,2.55l63.75,-25.5c12.75,10.2 28.05,17.85 43.35,25.5l10.2,66.3c0,5.1 5.1,10.2 12.75,10.2l102,0c5.101,0 12.75,-5.101 12.75,-10.2l10.2,-66.3c15.3,-7.65 30.6,-15.3 43.35,-25.5l63.75,25.5c5.101,2.55 12.75,0 15.301,-5.101l51,-89.25c2.55,-5.1 2.55,-12.75 -2.551,-15.3l-58.649,-40.8zm-188.7,63.75c-48.45,0 -89.25,-40.8 -89.25,-89.25s40.8,-89.25 89.25,-89.25s89.25,40.8 89.25,89.25s-40.8,89.25 -89.25,89.25z"/>
   </g>
  </g>
  <g id="svg_3"/>
  <g id="svg_4"/>
  <g id="svg_5"/>
  <g id="svg_6"/>
  <g id="svg_7"/>
  <g id="svg_8"/>
  <g id="svg_9"/>
  <g id="svg_10"/>
  <g id="svg_11"/>
  <g id="svg_12"/>
  <g id="svg_13"/>
  <g id="svg_14"/>
  <g id="svg_15"/>
  <g id="svg_16"/>
  <g id="svg_17"/>
 </g>
</svg>